<?xml version="1.0" encoding="UTF-8" standalone="no"?>
<!DOCTYPE svg PUBLIC "-//W3C//DTD SVG 1.1//EN" "http://www.w3.org/Graphics/SVG/1.1/DTD/svg11.dtd">
<svg width="100%" height="100%" viewBox="0 0 1246 210" version="1.1" xmlns="http://www.w3.org/2000/svg" xmlns:xlink="http://www.w3.org/1999/xlink" xml:space="preserve" xmlns:serif="http://www.serif.com/" style="fill-rule:evenodd;clip-rule:evenodd;">
    <g transform="matrix(1,0,0,1,-6.243396,-187.941966)">
        <g transform="matrix(1.774341,0,0,1.774341,25.423576,204.566336)">
            <path d="M104.816,96L135.28,14.976C136.645,11.477 138.522,8.917 140.912,7.296C143.301,5.675 146.074,4.864 149.232,4.864C152.389,4.864 155.162,5.675 157.552,7.296C160.026,8.832 161.904,11.349 163.184,14.848L193.776,96L180.336,96L172.528,74.368L125.68,74.368L117.744,96L104.816,96ZM129.52,63.488L168.816,63.488L152.816,19.072C152.389,17.963 151.92,17.109 151.408,16.512C150.896,15.915 150.17,15.616 149.232,15.616C148.378,15.616 147.696,15.915 147.184,16.512C146.672,17.109 146.245,17.963 145.904,19.072L129.52,63.488ZM203.02,96L203.02,49.28C203.02,43.477 204.641,38.955 207.884,35.712C211.212,32.384 215.777,30.72 221.58,30.72L235.02,30.72L235.02,40.832L223.756,40.832C220.94,40.832 218.721,41.643 217.1,43.264C215.564,44.885 214.796,47.147 214.796,50.048L214.796,96L203.02,96ZM245.904,96L245.904,56.704C245.904,51.669 247.056,47.061 249.36,42.88C251.664,38.699 254.992,35.371 259.344,32.896C263.696,30.421 268.944,29.184 275.088,29.184C278.074,29.184 281.061,29.611 284.048,30.464C287.034,31.232 289.808,32.597 292.368,34.56C294.928,36.437 296.976,38.997 298.512,42.24L298.64,42.24C300.346,38.997 302.48,36.437 305.04,34.56C307.6,32.597 310.373,31.232 313.36,30.464C316.346,29.611 319.376,29.184 322.448,29.184C328.506,29.184 333.712,30.421 338.064,32.896C342.416,35.371 345.744,38.699 348.048,42.88C350.352,47.061 351.504,51.669 351.504,56.704L351.504,96L339.728,96L339.728,56.704C339.728,53.461 338.96,50.517 337.424,47.872C335.888,45.227 333.797,43.136 331.152,41.6C328.592,40.064 325.648,39.296 322.32,39.296C319.077,39.296 316.09,40.107 313.36,41.728C310.629,43.264 308.453,45.355 306.832,48C305.296,50.56 304.528,53.461 304.528,56.704L304.528,96L292.752,96L292.752,56.704C292.752,53.461 291.941,50.56 290.32,48C288.784,45.355 286.65,43.264 283.92,41.728C281.274,40.107 278.288,39.296 274.96,39.296C271.717,39.296 268.773,40.064 266.128,41.6C263.568,43.136 261.52,45.227 259.984,47.872C258.448,50.517 257.68,53.461 257.68,56.704L257.68,96L245.904,96ZM397.29,97.536C390.975,97.536 385.514,96.043 380.906,93.056C376.298,89.984 372.756,85.845 370.282,80.64C367.807,75.435 366.57,69.675 366.57,63.36C366.57,56.96 367.935,51.2 370.666,46.08C373.396,40.875 377.322,36.779 382.442,33.792C387.562,30.72 393.706,29.184 400.874,29.184C407.786,29.184 413.716,30.677 418.666,33.664C423.615,36.651 427.412,40.704 430.058,45.824C432.788,50.944 434.154,56.661 434.154,62.976L434.154,96L422.25,96L422.25,82.688L421.994,82.688C420.714,85.163 418.964,87.552 416.746,89.856C414.612,92.075 411.924,93.909 408.682,95.36C405.439,96.811 401.642,97.536 397.29,97.536ZM400.362,87.424C404.628,87.424 408.383,86.4 411.626,84.352C414.954,82.219 417.514,79.317 419.306,75.648C421.183,71.893 422.122,67.712 422.122,63.104C422.122,58.581 421.226,54.528 419.434,50.944C417.727,47.36 415.252,44.544 412.01,42.496C408.767,40.363 404.97,39.296 400.618,39.296C396.01,39.296 392.042,40.363 388.714,42.496C385.471,44.629 382.954,47.531 381.162,51.2C379.455,54.784 378.602,58.88 378.602,63.488C378.602,67.925 379.455,71.979 381.162,75.648C382.868,79.232 385.343,82.091 388.586,84.224C391.828,86.357 395.754,87.424 400.362,87.424ZM482.984,97.536C478.034,97.536 473.512,96.768 469.416,95.232C465.32,93.611 461.778,91.264 458.792,88.192C455.805,85.12 453.458,81.451 451.752,77.184C450.13,72.832 449.32,67.968 449.32,62.592C449.32,55.765 450.685,49.877 453.416,44.928C456.232,39.893 460.029,36.011 464.808,33.28C469.672,30.549 475.09,29.184 481.064,29.184C484.392,29.184 487.549,29.739 490.536,30.848C493.608,31.957 496.338,33.493 498.728,35.456C501.117,37.419 502.994,39.723 504.36,42.368L504.616,42.368L504.616,2.56L516.392,2.56L516.392,62.976C516.392,70.229 514.898,76.459 511.912,81.664C509.01,86.784 505.042,90.709 500.008,93.44C495.058,96.171 489.384,97.536 482.984,97.536ZM482.984,87.424C486.994,87.424 490.621,86.443 493.864,84.48C497.106,82.517 499.666,79.744 501.544,76.16C503.506,72.576 504.488,68.352 504.488,63.488C504.488,58.539 503.506,54.272 501.544,50.688C499.666,47.019 497.106,44.203 493.864,42.24C490.621,40.277 486.952,39.296 482.856,39.296C478.845,39.296 475.176,40.32 471.848,42.368C468.605,44.416 466.002,47.232 464.04,50.816C462.162,54.4 461.224,58.581 461.224,63.36C461.224,68.309 462.205,72.576 464.168,76.16C466.13,79.744 468.733,82.517 471.976,84.48C475.304,86.443 478.973,87.424 482.984,87.424ZM534.654,96L534.654,30.72L546.558,30.72L546.558,96L534.654,96ZM540.67,20.352C538.536,20.352 536.659,19.584 535.038,18.048C533.502,16.427 532.734,14.549 532.734,12.416C532.734,10.283 533.502,8.448 535.038,6.912C536.659,5.291 538.536,4.48 540.67,4.48C542.803,4.48 544.638,5.291 546.174,6.912C547.795,8.448 548.606,10.283 548.606,12.416C548.606,14.549 547.795,16.427 546.174,18.048C544.638,19.584 542.803,20.352 540.67,20.352ZM565.154,96L565.154,2.56L576.93,2.56L576.93,96L565.154,96ZM595.654,96L595.654,2.56L607.43,2.56L607.43,96L595.654,96ZM656.874,97.536C650.218,97.536 644.33,96.043 639.21,93.056C634.09,89.984 630.036,85.888 627.05,80.768C624.063,75.563 622.57,69.76 622.57,63.36C622.57,56.96 624.063,51.2 627.05,46.08C630.036,40.875 634.09,36.779 639.21,33.792C644.33,30.72 650.218,29.184 656.874,29.184C663.53,29.184 669.418,30.72 674.538,33.792C679.743,36.779 683.796,40.832 686.698,45.952C689.684,51.072 691.178,56.875 691.178,63.36C691.178,69.76 689.684,75.563 686.698,80.768C683.796,85.888 679.743,89.984 674.538,93.056C669.418,96.043 663.53,97.536 656.874,97.536ZM656.874,87.424C661.396,87.424 665.322,86.357 668.65,84.224C671.978,82.091 674.58,79.232 676.458,75.648C678.335,71.979 679.274,67.883 679.274,63.36C679.274,58.837 678.335,54.784 676.458,51.2C674.58,47.531 671.978,44.629 668.65,42.496C665.322,40.363 661.396,39.296 656.874,39.296C652.436,39.296 648.511,40.363 645.098,42.496C641.77,44.629 639.167,47.531 637.29,51.2C635.412,54.784 634.474,58.837 634.474,63.36C634.474,67.883 635.412,71.979 637.29,75.648C639.167,79.232 641.77,82.091 645.098,84.224C648.511,86.357 652.436,87.424 656.874,87.424Z" style="fill-rule:nonzero;"/>
        </g>
        <g transform="matrix(1.774341,0,0,1.774341,25.423576,204.566336)">
            <path d="M55.658,35.988L79.219,94.319L69.154,96.149C69.154,96.149 63.024,91.208 38.502,71.444L18.829,88.829M55.658,35.988L65.494,3.276C61.487,1.736 49.95,6.878 49.024,12.655M55.658,35.988L46.736,28.21C46.736,28.21 48.131,18.73 49.024,12.655M49.024,12.655C47.148,9.528 44.22,4.649 44.22,4.649C35.93,8.421 32.905,12.162 30.953,23.177L9.45,14.027" style="fill:none;fill-rule:nonzero;stroke:black;stroke-width:6px;"/>
        </g>
        <g transform="matrix(1.774341,0,0,1.774341,25.423576,204.566336)">
            <path d="M30.952,23.178L28.436,52.915L38.729,71.902L25.004,62.408M11.279,25.694L11.279,52.915L25.004,62.408M25.004,62.408L11.279,69.385" style="fill:none;fill-rule:nonzero;stroke:black;stroke-width:6px;"/>
        </g>
        <g transform="matrix(1.774341,0,0,1.774341,25.423576,204.566336)">
            <circle cx="46.56" cy="48" r="6"/>
        </g>
        <g transform="matrix(1.774341,0,0,1.774341,25.423576,204.566336)">
            <path d="M20.663,19.611C5.38,28.914 1.56,31.239 1.56,31.239" style="fill:none;fill-rule:nonzero;stroke:black;stroke-width:6px;"/>
        </g>
    </g>
</svg>
